<?xml version="1.0" encoding="utf-8"?>
<!-- Generator: Adobe Illustrator 19.1.0, SVG Export Plug-In . SVG Version: 6.00 Build 0)  -->
<svg version="1.1" id="Layer_1" xmlns="http://www.w3.org/2000/svg" xmlns:xlink="http://www.w3.org/1999/xlink" x="0px" y="0px"
	 viewBox="-110 119.1 379.3 67.5" style="enable-background:new -110 119.1 379.3 67.5;" xml:space="preserve">
<style type="text/css">
	.st0{fill:#0D0C17;}
	.st1{fill:#160F29;}
	.st2{fill:url(#SVGID_1_);}
	.st3{fill:#CCCCCC;}
	.st4{fill:#FFD520;}
	.st5{fill:#E03A3E;}
	.st6{font-family:'Helvetica';}
	.st7{font-size:48px;}
</style>
<g>
	<path class="st0" d="M13.9,181.6L1.1,154.7H1l-1.4,22.8c-0.1,2.5,1.8,3.1,4.1,3.2v1H-7v-1c3.7,0,4.2-0.8,4.4-5.4l1.2-19.7
		c0.2-3.3,0.1-4.3-3.1-4.4v-0.9h7.7l12.2,25.4l12.1-25.4H35v0.9c-2.4,0.2-3.4,0.2-3.3,2l1.6,22.9c0.3,4.6,0.7,4.6,4.4,4.6v1h-13v-1
		c2.4,0,4.7-0.7,4.5-3.3l-1.4-22.7h-0.1L15,181.6H13.9z"/>
	<path class="st0" d="M57.9,165.5h-8.7l4.3-11.7L57.9,165.5z M58.8,167.7l3.4,9.1c0.2,0.5,0.5,1.2,0.5,2.1c0,1.4-1.1,1.8-4,1.8h-1.3
		v1h13.9v-1c-2.5,0-3.6-0.6-4.6-3.2l-10.5-27.9h-4.4l0.4,1.1l-9.2,25.1c-1.6,4.4-2.2,4.9-5.5,4.9v1h11.7v-1h-0.8
		c-2.8,0-4.1-0.6-4.1-1.9c0-0.7,0.7-2.2,1-3.2l3-7.9C48.4,167.7,58.8,167.7,58.8,167.7z"/>
	<path class="st0" d="M80.5,150.8c0.9-0.1,1.5-0.1,2.5-0.1c7.8,0,9.9,3.6,9.9,8.4c0,6.1-3.7,8.5-9.3,8.5c-1.2,0-2,0-3.2-0.1v-16.6
		H80.5z M80.5,168.4c0.8,0,1.4,0.1,2.6,0.1c1.3,0,2.2,0,3.4-0.1c1.2,0.8,3,2.3,5.3,4.5l3.3,3.3c4.5,4.5,6.7,6.4,15.6,5.9v-0.9
		c-3.8-0.2-6.9-2.1-9.9-5.1l-4-4c-2.3-2.3-3.9-3.7-5.7-5.3c4.2-1.2,6.7-4.4,6.7-8.1c0-5.2-4.2-9-13.5-9c-3.3,0-4.3,0-6.4,0.1
		c-2.1,0.1-5.2,0.3-6.4,0.3v1h1.1c3,0,3.7,0.9,3.7,4.1v21.2c0,3.4-1.1,4.2-4.1,4.2h-0.9v1h14.3v-1h-1.2c-2.9,0-4.1-0.8-4.1-3.7
		L80.5,168.4L80.5,168.4z"/>
	<path class="st0" d="M127.9,154.9c1.6-2.8,0.7-3.6-2.5-3.6v-1h11.3v1c-3.4,0.2-4.8,1.6-6.3,4l-8.4,14.1v7.6c0,2.6,1,3.7,4.1,3.7
		h0.7v1h-13.9v-1h1c3.2,0,4.1-1.2,4.1-3.6v-7.2l-9-14c-2.4-3.8-3.6-4.6-6.9-4.7v-1h13.4v1c-4,0-4.2,1-2.8,3.3l8.1,12.4L127.9,154.9z
		"/>
	<path class="st0" d="M158.8,181.6h-22.6v-1h1.7c2.3,0,3.2-0.8,3.2-3.3V155c0-2.6-0.8-3.7-4-3.7h-0.7v-1h14.9v1h-1.9
		c-3.3,0-4.2,0.3-4.2,3.5V178c0,1.3,0.6,1.9,2,1.9h7.4c3,0,3.9-1.2,7-5.6h0.9L158.8,181.6z"/>
	<path class="st0" d="M181.9,165.5h-8.7l4.3-11.7L181.9,165.5z M182.8,167.7l3.4,9.1c0.2,0.5,0.6,1.2,0.6,2.1c0,1.4-1.1,1.8-4,1.8
		h-1.3v1h13.9v-1c-2.5,0-3.6-0.6-4.6-3.2l-10.6-27.9h-4.4l0.4,1.1l-9.2,25.1c-1.7,4.4-2.2,4.9-5.5,4.9v1h11.7v-1h-0.8
		c-2.8,0-4.1-0.6-4.1-1.9c0-0.7,0.7-2.2,1-3.2l3-7.9C172.2,167.7,182.8,167.7,182.8,167.7z"/>
	<path class="st0" d="M228,182l-26.1-27.4v21.6c0,3.6,0.8,4.4,5.1,4.4v1h-11.7v-1h0.2c3.1,0,4.2-1.1,4.2-3.4v-24.6
		c-1.2-0.8-2.4-1.2-4.3-1.2v-1h7.9l23.8,24.8v-20c0-3.1-0.9-3.6-5-3.7v-1h11.8v1c-3.7,0-4.6,0.7-4.6,2.6v28.2H228V182z"/>
	<path class="st0" d="M243.4,150.9c0.7,0,2-0.2,4.1-0.2c7,0,10.7,1.8,13,4.1c3,3,4.1,7.1,4.1,10.8c0,5.2-2.3,9-4.2,10.9
		c-3.1,3.1-5.9,4.1-12.8,4.1c-4,0-4.2-0.7-4.2-2.8L243.4,150.9L243.4,150.9z M239.2,177c0,3-1.2,3.6-4,3.6h-0.9v1h16.2
		c12.8,0,18.7-9.1,18.7-16.7c0-8.4-5.8-15.1-19.2-15.1c-2.6,0-5.7,0-8.5,0.1s-5.3,0.2-7.2,0.3v0.9h1c3,0,3.8,0.8,3.8,4.1V177z"/>
</g>
<g>
	<path class="st1" d="M8.9,126.7h0.3c1.8,0.1,2.1,0.3,2.1,2.6v5.8c0,4.2-3,5.1-5.4,5.1c-3.4,0-5.4-1.8-5.4-5.1v-6.9
		c0-1.2,0.3-1.5,1.7-1.5h0.5v-1.1h-7v1.1H-4c1.7,0,1.9,0.2,1.9,1.5v7.3c0,4.1,3,6.6,7.6,6.6c5.7,0,7.7-3.6,7.7-6.7v-6.6
		c0-1.4,0.4-2,2-2h0.3v-1.1H8.9V126.7z"/>
	<path class="st1" d="M36.2,126.8h0.3c2,0,2.1,0.3,2.1,1.5v9.1l-11.3-11.9h-4.4v1.1h0.3c0.8,0,1.3,0.2,1.8,0.4v12.2
		c0,0.9-0.2,1.3-1.8,1.3h-0.4v1.1h6.5v-1.1H29c-2,0-2.2-0.3-2.2-1.9v-9.9l12.3,13l0.1,0.1h1.1v-14.3c0-0.7,0-1,2-1h0.3v-1.1h-6.5
		v1.2H36.2z"/>
	<path class="st1" d="M50.5,126.7h0.3c1.3,0.1,1.5,0.3,1.5,1.4v10.7c0,1.5-0.2,1.8-1.5,1.9h-0.3v1.1h6.7v-1.1h-0.3
		c-1.5,0-1.8-0.3-1.8-1.7v-10.6c0-1.5,0.3-1.6,1.8-1.6h0.3v-1.1h-6.7V126.7z"/>
	<path class="st1" d="M76.6,126.8h0.3c2,0,2,0.4,2,0.8c0,0.3-0.1,0.8-0.4,1.4l-3.6,9.5L70.7,128c-0.2-0.6-0.1-0.7-0.1-0.8
		c0.2-0.3,0.9-0.4,2.2-0.6h0.3v-1.1h-7.6v1.1h0.3c1.3,0,1.5,0.2,2.2,1.8l5.5,13.8h1.7l5.3-13.5c0.5-1.4,1.1-2,2.3-2h0.3v-1.1h-6.5
		V126.8z"/>
	<path class="st1" d="M103.8,137.7c-0.7,2.2-1.1,2.6-2.5,2.6h-3.8c-0.8,0-1-0.1-1-1.1v-4.9h4c0.8,0,1.2,0,1.4,1.7v0.3h1.1v-5.5h-1.1
		v0.3c-0.1,1.4-0.6,1.5-1.1,1.5h-4.2v-5.5h5c0.7,0,1.2,0.2,1.5,2.3v0.3h1.1l-0.2-4.2H91.2v1.1h0.9c1.4,0,1.7,0.4,1.7,1.6v10.6
		c0,1.3-0.2,1.8-2,1.8h-1v1.1h14l0.4-4.4h-1.1L103.8,137.7z"/>
	<path class="st1" d="M129.4,138.5l-2-2c-1-0.9-1.6-1.6-2.4-2.2c1.9-0.8,3-2.3,3-4.2c0-3-2.6-4.7-7-4.7c-1.7,0-2.1,0-3.2,0.1h-0.7
		c-1,0.1-2,0.1-2.5,0.1h-0.3v1.1h0.9c1.3,0,1.5,0.3,1.5,1.6V139c0,1.5-0.4,1.8-1.7,1.8h-0.8v1.1h7.7v-1.1h-0.9
		c-1.3,0-1.7-0.3-1.7-1.5v-3.8c0.2,0,0.5,0,1,0c0.6,0,0.9,0,1.3,0h0.3c0.7,0.4,1.5,1.2,2.4,2.1l1.7,1.6c2.1,2.1,3.3,3.1,6.9,3.1
		c0.3,0,0.7,0,1.1,0h0.3v-1.1h-0.3C132.4,140.8,130.9,140.2,129.4,138.5z M119.4,126.5c0.3,0,0.5,0,0.9,0c3.2,0,4.6,1.2,4.6,3.9
		c0,2.6-1.4,3.8-4.3,3.8h-0.7c-0.2,0-0.4,0-0.5,0V126.5z"/>
	<path class="st1" d="M145.6,132.2c-1.8-1.1-3.4-2.2-3.4-3.6c0-1.2,1-2,2.4-2c1.6,0,3.1,1.1,3.7,2.8l0.1,0.2h1l-0.6-3.8H148
		l-0.1,0.1c-0.1,0.1-0.1,0.1-0.2,0.1c-0.3,0-0.6-0.1-0.9-0.2c-0.6-0.2-1.2-0.4-2.5-0.4c-2.8,0-4.7,1.7-4.7,4c0,2.4,2.3,4,4.4,5.3
		c1.9,1.2,3.5,2.2,3.5,3.7c0,1.8-1.5,2.6-3.1,2.6c-1.9,0-3.4-1.3-3.9-3.3l-0.1-0.2h-1.1l0.7,4.5h0.9l0.1-0.2c0-0.1,0.1-0.1,0.2-0.1
		c0.1,0,0.4,0.1,0.7,0.2c0.8,0.2,1.9,0.6,2.8,0.6c3.1,0,5.4-2,5.4-4.6C150.2,135,147.8,133.5,145.6,132.2z"/>
	<path class="st1" d="M160,126.7h0.3c1.3,0.1,1.5,0.3,1.5,1.4v10.7c0,1.5-0.2,1.8-1.5,1.9H160v1.1h6.7v-1.1h-0.3
		c-1.5,0-1.8-0.3-1.8-1.7v-10.6c0-1.5,0.3-1.6,1.8-1.6h0.3v-1.1H160V126.7z"/>
	<path class="st1" d="M190.7,125.2v0.2c0,0-0.1,0.1-0.4,0.1h-12.1c-0.1,0-0.3,0-0.4-0.1v-0.2h-1.1l-0.4,4.7h1.1v-0.2
		c0.4-2.3,0.9-2.5,1.5-2.5h4.1v12.1c0,1.1-0.2,1.5-1.6,1.5H180v1.1h8.6v-1.1h-1.2c-1.4,0-1.6-0.4-1.6-1.5v-12.1h4.1
		c0.7,0,1.1,0.2,1.5,2.5v0.2h1.1l-0.7-4.7H190.7z"/>
	<path class="st1" d="M211.5,126.8h0.3c1,0,1.2,0.2,1.3,0.3c0,0.1,0.1,0.3-0.3,1l-3.3,5.6l-3.7-5.7c-0.4-0.7-0.4-0.8-0.3-0.9
		c0-0.1,0.2-0.2,1.4-0.2h0.3v-1.1h-7.3v1.1h0.3c1.4,0,2,0.2,3.2,2.2l4.4,6.9v3.4c0,1-0.2,1.4-1.6,1.4h-0.8v1.1h7.6v-1.1h-0.7
		c-1.4,0-1.7-0.4-1.7-1.5v-3.6l4.2-6.9c0.7-1.1,1.3-1.8,2.9-1.9h0.3v-1.1h-6.3v1H211.5z"/>
	<path class="st1" d="M240.8,125.2c-5.5,0-9.5,3.7-9.5,8.8c0,4.6,4.1,8.1,9.3,8.1c5.3,0,9.2-3.8,9.2-8.9
		C250,128.7,246,125.2,240.8,125.2z M240.2,126.4c4,0,6.8,3.1,6.8,7.6c0,3.3-1.8,6.8-5.7,6.8s-6.9-3.3-6.9-7.7
		C234.4,130.5,235.9,126.4,240.2,126.4z"/>
	<path class="st1" d="M264.5,127.1c1.3,0,1.8,0.4,1.8,1.8v0.3h1.1v-3.6h-11.9v1.1h0.3c1.4,0,1.5,0.4,1.5,2v9.8c0,2-0.2,2.1-1.5,2.1
		h-0.3v1.1h6.7v-1.1h-0.3c-1.8,0-1.9-0.4-1.9-1.6v-5h4.3c1,0,1.4,0.2,1.4,1.5v0.3h1.1v-5.1h-1.1v0.3c-0.1,1.1-0.6,1.3-1.1,1.3H260
		v-5.3H264.5z"/>
</g>
<g>
	<g>
		
			<radialGradient id="SVGID_1_" cx="-34" cy="139.6" r="27.7921" gradientTransform="matrix(1 0 0 -1 0 292)" gradientUnits="userSpaceOnUse">
			<stop  offset="0" style="stop-color:#FFFFFF"/>
			<stop  offset="0.5149" style="stop-color:#FDFDFD"/>
			<stop  offset="0.7003" style="stop-color:#F6F6F6"/>
			<stop  offset="0.8325" style="stop-color:#EBEBEB"/>
			<stop  offset="0.9387" style="stop-color:#DADADA"/>
			<stop  offset="1" style="stop-color:#CCCCCC"/>
		</radialGradient>
		<path class="st2" d="M-34,180.2c-15.4,0-27.8-12.4-27.8-27.8c0-15.3,12.4-27.8,27.8-27.8c15.3,0,27.8,12.4,27.8,27.8
			S-18.7,180.2-34,180.2z"/>
	</g>
	<g>
		<path class="st3" d="M-34,180.2c-15.4,0-27.8-12.4-27.8-27.8c0-15.3,12.4-27.8,27.8-27.8c15.3,0,27.8,12.4,27.8,27.8
			S-18.7,180.2-34,180.2z M-34,125c-15.2,0-27.5,12.3-27.5,27.5c0,15.2,12.3,27.5,27.5,27.5s27.5-12.3,27.5-27.5
			C-6.6,137.3-18.9,125-34,125z"/>
	</g>
	<path class="st4" d="M-6.4,151.8c0,0.1-0.4,0.6-1,0.9l0,0c-0.7,0.4-1.8,0.8-3,1.1c-1.3,0.3-2.9,0.7-4.6,0.9
		c-1.8,0.2-3.7,0.4-5.8,0.7l0,0c-2.6,0.2-4.4,0.3-6.5,0.4c-2.3,0.1-4.6,0.1-7,0.1c0,0.3,0,0.7,0,0.9c0,2.2,0,4.2,0,6.2
		c0.1,10.6,0.1,10.6,0.4,17.1c15.3,0,27.6-12.3,27.6-27.6C-6.4,152.4-6.4,152.1-6.4,151.8z"/>
	<g>
		<path d="M-34.4,156.9c0,2.2,0,4.2,0,6.2c4.4,4.2,4.4,4.2,6.3,6.1c0.4-3.5,0.8-7.7,0.8-12.3c0-0.3,0-0.7,0-0.9
			c-2.8,0.1-4.6,0.1-7,0.1C-34.4,156.2-34.4,156.6-34.4,156.9z"/>
		<path d="M-24.3,173.7c-1-1.5-1.9-2.6-3.8-4.7c-1,6.7-2.6,10.9-4.7,11c0.2,0,0.4,0,0.7,0c0.2,0,0.4,0,0.7-0.1
			C-28.6,179.7-26.2,177.5-24.3,173.7z"/>
		<path d="M-21.2,162.5c0,0-1.5,8.2-3.1,11.3c0.9,1.7,0.9,2.3,0.6,3.4c2.6-2.1,4.8-5.1,6.4-8.9C-18.3,166.3-18.9,165.3-21.2,162.5z"
			/>
		<path d="M-29,179.7c0.5-0.1,0.5-0.2,1.6-0.4l0.7-0.2c2.1-0.7,2.4-1,3.1-1.9c-1.9,1.3-3.7,2.2-5.9,2.5H-29z"/>
		<path d="M-16.8,172.9c4-4.5,6.4-10.9,6.4-18.2c0-0.3,0-0.7,0-0.9c-1.3,0.3-2.9,0.7-4.6,0.9c0,0.3,0,0.7,0,0.9
			c0,4.7-0.8,9-2.3,12.6C-16.4,170.3-16.4,171.3-16.8,172.9z"/>
		<path d="M-20.8,155.4c-2.6,0.2-4.4,0.3-6.5,0.4c3.7,4,4.6,4.8,6.2,6.7c0.2-2,0.3-4.1,0.3-6.2C-20.8,156-20.8,155.7-20.8,155.4z"/>
	</g>
	<path d="M-40,126.2c1.5-0.7,3-1.3,6-1.4l0,0C-36.1,125-38.2,125.6-40,126.2"/>
	<g>
		<path class="st5" d="M-15.5,154.7c-1.4-0.2-2.6-2.6-2-5.1c-2,1.4-4.3-1.4-4-4.2c0.2-1.4,1.1-2.6,2.8-2.1c-0.7-2.2-1.4-4.4-2.4-6.4
			c-1.4,0.2-3,0.3-4.6,0.4c1.4,2.2,0,4.3-2,4c-1.5-0.2-2.9-1.8-2.5-3.6c-1.2,0.9-3.7,0.5-4-2.1c-0.1,5.6-0.1,12.8-0.1,20.2
			c7.4,0.1,15.9-0.7,19.4-1.2l0,0C-15.2,154.7-15.4,154.7-15.5,154.7z"/>
	</g>
	<g>
		<path class="st5" d="M-51.8,160.2c2.1-0.8,4.6,2.8,3.7,5.2c-0.4,1.1-1.5,1.4-2.6,0.8c0.7,2.1,1.4,4,2.3,5.6
			c1.4,0.2,3.1,0.3,4.8,0.6c-1.4-1.8-0.3-3.2,1.7-3.1c1.6,0.1,3.8,1.4,3.3,3.3c1.4-0.7,4-0.1,4.3,1.8c-0.1-4.2-0.1-10.2-0.1-17.4
			c0-0.3,0-0.6,0-0.9c-2.3,0-4.7-0.1-7-0.2c-5-0.2-8.4-0.4-12.5-1.2l0,0C-51.9,155.3-51.3,158.4-51.8,160.2z"/>
	</g>
	<path class="st5" d="M-20.9,134.8L-20.9,134.8L-20.9,134.8L-20.9,134.8L-20.9,134.8L-20.9,134.8c0.3,0,0.5-0.1,0.8-0.1
		c1.5-0.3,5.2-1.1,5.2-2.2c0,0,1.4,1.4,2.4,3.4c0.1,0.2,0.2,0.4,0.3,0.8c0.1,0.3,0.2,0.8,0.2,1c0,0.5-0.4,0.7-0.8,0.4h-0.1
		c-1.4-0.7-1.9-2-2.2-2.5c-0.8,0.2-1.9,0.8-2.9,1c-0.1,0-0.3,0.1-0.4,0.1c1.2,2,2.3,4.2,3.1,6.5c1.4-1.4,3.5,1.2,3.6,3.7
		c0.1,1.5-0.7,2.9-2,2.3c1.1,2.1,0.8,5.1-1.3,5.7C-15.4,148-16.5,142.1-20.9,134.8L-20.9,134.8L-20.9,134.8"/>
	<path class="st5" d="M-20.9,134.8L-20.9,134.8L-20.9,134.8L-20.9,134.8L-20.9,134.8c-3.5-5.4-6.3-7.4-9.9-8.7
		c-0.7-0.3-3.1-1.2-3.3-1.2l0,0l0,0c0.7,0.9,1.9,1.4,2.2,1.5c-0.1,0.3,0,1,1.1,1.9c0.2,0.1,0.3,0.2,0.5,0.3c1.8,1,2.2,0.2,2.3-0.1
		l0,0c0.6,0.3,1.7,1.1,2.9,2.5c0.7,0.8,1.3,1.5,1.8,2.2c-1.1,0.1-2.5,0.2-4.1,0.3c-0.1-1.8-1.3-2.6-2.2-3c-1.8-0.7-2.3,1.4-1.5,2.9
		c-1.4-0.8-3-0.1-3.3,2.1C-28.8,135.6-25.1,135.3-20.9,134.8L-20.9,134.8L-20.9,134.8"/>
	<path class="st5" d="M-20.6,129.7c0,0,0-0.1,0-0.2s0.1-0.1,0.1-0.1s0-0.1,0.1-0.1c0.3-0.1,1.1-0.2,3.4,1.3
		c-4.8-3.7-9.9-5.3-14.3-5.7c-0.7-0.1-1.8-0.1-1.8-0.1c1.4,0.1,2.3,0.4,2.5,0.5c0.2,0.1,0.3,0.1,0.4,0.2l0,0c0.3,0,0.6,0.1,1,0.2
		c0.4,0.1,1.1,0.4,1.8,0.7c0.7,0.3,1.5,1,1.5,1.3c-0.1,0.1-0.2,0.1-0.7,0c1.6,1.2,4,3.4,5.4,5c1-0.2,2.4-0.3,3.1-0.6
		C-18,132.3-20.1,130.7-20.6,129.7z"/>
	<path class="st5" d="M-48.7,173.3c-2.4-0.4-3.7-0.8-4.6-1.2c-0.1-0.1-0.2-0.1-0.2-0.1s-1.3-1.3-2.5-2.9c-0.9-1.1-1.5-2.3-1.6-2.4
		c0,0,0.2,0,0.3,0c1.2,0.4,3.2,3.9,3.2,3.9c0.8,0.3,1.8,0.6,3,0.8c-1.1-1.8-2.1-3.6-2.9-5.7c-1.8,0.9-4-3.6-3.2-5.6
		c0.2-0.4,0.7-1.2,1.8-0.3c-0.9-2-0.7-5.1,1.4-5.1C-54,161.3-53,167-48.7,173.3"/>
	<path class="st5" d="M-34.3,174.6c-0.2,1-1.5,1.9-3.5,1.1c0.9,1.2,0.1,2.2-1.4,1.9c-1.2-0.2-2.6-1.2-2.8-2.2
		c-1.5-0.1-2.9-0.2-4.1-0.4c1.2,1.3,2.4,2.4,3.8,3.3c0.2-0.1,0.4,0,1.2,0.2c1.1,0.3,2.1,0.9,3.1,1.2h-0.2c-0.8-0.1-1-0.2-1.4-0.2
		c-2.1-0.4-5.6-1.5-9.1-6.3l0,0l0,0l0,0c4.3,0.7,8.5,1,14.4,1C-34.3,174.4-34.3,174.5-34.3,174.6"/>
	<path class="st4" d="M-34.1,124.8c-14.8,0-27.3,12.1-27.6,27.1l0,0c0,0,0.1,0.3,0.8,0.7l0,0l0,0c0.5,0.3,1.4,0.8,2.5,1.1
		c1.4,0.3,2.9,0.7,4.3,0.9l0,0c4.2,0.7,7.6,1,12.5,1.2c2.3,0.1,4.7,0.2,7,0.2c0-1.4,0-9.5,0-17.2c0-1,0-2.1,0-3.1
		C-34.2,130.6-34.2,125.4-34.1,124.8L-34.1,124.8z"/>
	<path d="M-20.8,176.7c-1.5,0.9-1.9,0.9-4,1.8c-0.5,0.2-1.1,0.3-1.8,0.6c3.7-1,8.8-5.2,9.7-6.2c-0.4,1-0.8,1.6-1.9,2.5
		C-19,175.6-20.4,176.5-20.8,176.7z"/>
	<path d="M-58.3,153.6c-1.1-0.3-2-0.7-2.5-1.1c0.2-9.9,5.8-18.8,13.9-23.6c-1.9,1.6-2.8,2.8-3.7,5.1
		C-55.2,139.1-58.1,146.1-58.3,153.6"/>
	<path d="M-46.9,128.9c2-1.4,3.2-2.5,6.4-3.3c2.2-0.5,4.2-0.8,6.5-0.8l0,0C-38.7,125-43.1,126.5-46.9,128.9"/>
	<path d="M-48.4,155.3c-2-0.2-4-0.4-5.6-0.8c0.1-5.1,1.2-9.8,3-14.1c0.7,2.8,1.3,4.3,3.3,7.6C-48.2,150.4-48.4,152.8-48.4,155.3"/>
	<path d="M-34.3,135.7c0,3.1,0,6.2-0.1,8.6c0,2.4,0,4.2,0,4.5c-2.8-2.9-4.2-4.4-6.2-6.9c1.3-8.6,3.7-15.4,6.5-16.9l0,0l0,0
		C-34.2,125.6-34.2,130.5-34.3,135.7z"/>
	<g>
		<path d="M-44,135.3c-1.8,3.6-3.1,8-3.7,12.8c1.7,2.5,2.8,4,6,7.7c0-4.9,0.4-9.7,1.1-14.1C-42.6,139-43.2,137.7-44,135.3z"/>
	</g>
	<path d="M-7.5,152.7c0,0.3,0,0.7,0,0.9c0,9.8-4.7,17.9-12.2,22.4l-0.1,0.1c3.5-2.2,7.9-5.8,10.8-11.8c3-5.9,2.6-12.5,2.6-12.5
		C-6.5,152.1-6.9,152.4-7.5,152.7z"/>
	<g>
		<path d="M-40,126.2c-4.1,1.5-7.7,4.3-10.6,7.7c-0.8,2.5-0.8,4-0.4,6.6c1.8-4.2,4.3-7.8,7.3-10.6C-42.9,128.4-42.4,127.4-40,126.2z
			"/>
	</g>
	<path d="M-44,135.3c-0.5-2.3-0.5-3.4,0.2-5.4c2.9-2.6,6.2-4.6,9.8-5.2C-38,125.8-41.5,129.9-44,135.3"/>
</g>
<text transform="matrix(1 0 0 1 -112 171.5001)" class="st6 st7">@</text>
</svg>
